<svg width="150" height="150" viewBox="0 0 150 150" fill="none" xmlns="http://www.w3.org/2000/svg">
<g clip-path="url(#clip0_66_304)">
<path d="M40.6682 50.9808L51.3072 43.083L67.1027 64.3609L56.4638 72.2587C53.6421 74.3533 50.104 75.2413 46.6277 74.7272C43.1514 74.2131 40.0216 72.3392 37.927 69.5175C35.8324 66.6959 34.9444 63.1578 35.4585 59.6814C35.9726 56.2051 37.8466 53.0754 40.6682 50.9808Z" fill="#F4511E"/>
<path d="M77.7417 56.4632L67.1027 64.3609L51.3072 43.083L61.9461 35.1852C64.7678 33.0906 68.3059 32.2027 71.7822 32.7167C75.2585 33.2308 78.3882 35.1048 80.4829 37.9264C82.5775 40.748 83.4654 44.2862 82.9514 47.7625C82.4373 51.2388 80.5633 54.3685 77.7417 56.4632Z" fill="#FF8A65"/>
<path d="M75.0005 74.9999C79.3623 80.8757 87.6615 82.1029 93.5372 77.7411C99.413 73.3793 100.64 65.0801 96.2784 59.2044C91.9166 53.3286 83.6174 52.1013 77.7417 56.4632C71.8659 60.825 70.6387 69.1242 75.0005 74.9999Z" fill="#29B6F6"/>
<path d="M56.4637 72.2587L67.1027 64.3609L82.8983 85.6389L72.2593 93.5366C69.4377 95.6313 65.8995 96.5192 62.4232 96.0051C58.9469 95.4911 55.8172 93.6171 53.7225 90.7955C51.6279 87.9738 50.74 84.4357 51.2541 80.9594C51.7681 77.4831 53.6421 74.3533 56.4637 72.2587Z" fill="#7C4DFF"/>
<path d="M72.2593 93.5367L82.8983 85.6389L90.796 96.2779C92.8907 99.0995 93.7786 102.638 93.2645 106.114C92.7505 109.59 90.8765 112.72 88.0549 114.815C85.2332 116.909 81.6951 117.797 78.2188 117.283C74.7424 116.769 71.6127 114.895 69.5181 112.073C67.4235 109.252 66.5355 105.714 67.0496 102.237C67.5637 98.761 69.4377 95.6313 72.2593 93.5367Z" fill="#00E676"/>
</g>
<defs>
<clipPath id="clip0_66_304">
<rect width="106" height="106" fill="white" transform="translate(0.853516 64.0352) rotate(-36.5881)"/>
</clipPath>
</defs>
</svg>
