<svg width="79" height="80" viewBox="0 0 79 80" fill="none" xmlns="http://www.w3.org/2000/svg">
<path d="M78.7594 50.2671C77.2487 46.6269 67.7893 41.3265 47.8239 39.9464C67.7597 38.3063 77.1598 32.8659 78.6212 29.2157C79.0261 28.2056 78.8681 27.2555 78.1769 26.5355C76.2317 24.5353 70.7121 24.7653 63.6916 27.0455C71.1268 21.1851 73.2596 16.4548 71.9364 14.3646C70.8503 12.6545 67.8584 12.8845 63.9582 14.9047C65.9034 10.9244 66.091 7.89417 64.3827 6.8141C62.2993 5.49401 57.6585 7.72416 51.971 15.3347C54.1236 8.1942 54.2816 2.59381 52.2771 0.653673C51.5662 -0.0363748 50.6182 -0.186385 49.6308 0.233644C46.0367 1.76375 40.7935 11.3444 39.4408 31.5458C37.8214 11.3644 32.4499 1.84376 28.8458 0.373654C27.8486 -0.0363748 26.9105 0.123636 26.1996 0.823685C24.2248 2.79382 24.4519 8.38421 26.7032 15.4947C20.9169 7.96418 16.2465 5.80403 14.1828 7.14412C12.4943 8.2442 12.7214 11.2744 14.716 15.2247C10.7861 13.2545 7.79426 13.0645 6.72786 14.7947C5.43435 16.9048 7.62639 21.5951 15.1406 27.3655C8.09048 25.1854 2.56098 25.0254 0.645408 27.0555C-0.0359053 27.7756 -0.18403 28.7356 0.230682 29.7357C1.74142 33.3759 11.2008 38.6863 31.1465 40.0564C11.2206 41.6965 1.82043 47.1369 0.368934 50.7871C-0.035904 51.7972 0.122064 52.7473 0.813251 53.4673C2.75845 55.4675 8.27809 55.2375 15.2986 52.9573C7.86337 58.8177 5.73056 63.548 7.05369 65.6382C8.13984 67.3483 11.1317 67.1183 15.032 65.0981C13.0868 69.0784 12.8992 72.1086 14.6074 73.1887C16.6908 74.5088 21.3218 72.2786 27.0191 64.6681C24.8666 71.8086 24.7086 77.409 26.713 79.3491C27.1376 79.7691 27.6511 79.9792 28.2139 79.9992C28.5792 80.0092 28.9742 79.9292 29.3692 79.7591C32.9633 78.229 38.2065 68.6484 39.5593 48.447C41.1786 68.6284 46.5501 78.149 50.1542 79.6191C50.4899 79.7591 50.8256 79.8292 51.1416 79.8392C51.7636 79.8592 52.3363 79.6291 52.8004 79.1691C54.7753 77.199 54.5481 71.6086 52.2968 64.4981C58.0831 72.0286 62.7535 74.1888 64.8172 72.8487C66.5057 71.7486 66.2786 68.7184 64.284 64.7681C68.2139 66.7383 71.2058 66.9283 72.2722 65.1981C73.5657 63.088 71.3736 58.3977 63.8594 52.6273C70.9095 54.8074 76.439 54.9674 78.3546 52.9373C79.0359 52.2172 79.184 51.2572 78.7693 50.2571L78.7594 50.2671Z" fill="#438BED"/>
</svg>
