<svg width="79" height="80" viewBox="0 0 79 80" fill="none" xmlns="http://www.w3.org/2000/svg">
<path d="M79 40C79 38.38 76.2452 37.07 65.3347 37.07C57.3765 37.07 47.3052 37.77 42.4276 38.78C46.5844 36 54.1971 29.28 59.8153 23.58C67.5267 15.77 68.5634 12.86 67.4279 11.72C66.2925 10.58 63.4291 11.62 55.7177 19.43C50.0896 25.13 43.4544 32.84 40.7095 37.04C41.7068 32.1 42.3979 21.9 42.3979 13.84C42.3979 2.79 41.1045 0 39.5049 0C37.9054 0 36.6021 2.79 36.6021 13.84C36.6021 21.9 37.2932 32.1 38.2905 37.04C35.5456 32.83 28.9104 25.12 23.2823 19.43C15.5709 11.62 12.6977 10.57 11.5721 11.72C10.4464 12.87 11.4733 15.77 19.1847 23.58C24.8128 29.28 32.4254 36 36.5724 38.78C31.6948 37.77 21.6235 37.07 13.6653 37.07C2.75478 37.07 0 38.38 0 40C0 41.62 2.75478 42.93 13.6653 42.93C21.6235 42.93 31.6948 42.23 36.5724 41.22C32.4156 44 24.8128 50.72 19.1847 56.42C11.4733 64.23 10.4366 67.14 11.5721 68.28C12.7075 69.43 15.5709 68.38 23.2823 60.57C28.9104 54.87 35.5456 47.16 38.2905 42.96C37.2932 47.9 36.6021 58.1 36.6021 66.16C36.6021 77.21 37.8955 80 39.5049 80C41.1144 80 42.3979 77.21 42.3979 66.16C42.3979 58.1 41.7068 47.9 40.7095 42.96C43.4544 47.17 50.0896 54.88 55.7177 60.57C63.4291 68.38 66.3023 69.43 67.4279 68.28C68.5634 67.13 67.5267 64.23 59.8153 56.42C54.1872 50.72 46.5746 44 42.4276 41.22C47.3052 42.23 57.3765 42.93 65.3347 42.93C76.2452 42.93 79 41.62 79 40Z" fill="#FFCC33"/>
</svg>
