<svg width="71" height="70" viewBox="0 0 71 70" fill="none" xmlns="http://www.w3.org/2000/svg">
<path d="M69.899 44.0127C68.5582 40.8824 60.163 36.3246 42.4437 35.1378C60.1367 33.7275 68.4794 29.0492 69.7763 25.9103C70.1356 25.0418 69.9954 24.2248 69.382 23.6056C67.6556 21.8857 62.757 22.0835 56.5263 24.0442C63.125 19.0048 65.0179 14.9371 63.8436 13.1398C62.8796 11.6693 60.2244 11.8671 56.7629 13.6042C58.4892 10.1815 58.6557 7.57581 57.1397 6.64704C55.2906 5.51189 51.1719 7.42962 46.1243 13.974C48.0347 7.8338 48.1749 3.01798 46.3959 1.34964C45.765 0.756258 44.9237 0.627262 44.0474 0.988449C40.8575 2.3042 36.2043 10.5427 35.0037 27.9141C33.5665 10.5599 28.7993 2.373 25.6007 1.10884C24.7156 0.756258 23.8831 0.893853 23.2521 1.49583C21.4995 3.18997 21.701 7.9972 23.699 14.1116C18.5638 7.63601 14.4188 5.77848 12.5872 6.93083C11.0887 7.8768 11.2903 10.4825 13.0605 13.8794C9.57268 12.1852 6.91741 12.0219 5.97098 13.5096C4.82299 15.3241 6.76842 19.3574 13.4373 24.3194C7.1803 22.4447 2.27287 22.3071 0.5728 24.0528C-0.0318659 24.672 -0.163327 25.4976 0.204731 26.3575C1.54551 29.4878 9.94072 34.0543 27.6425 35.2324C9.95825 36.6428 1.61563 41.321 0.327429 44.4599C-0.0318648 45.3284 0.108331 46.1454 0.72176 46.7646C2.44812 48.4845 7.3468 48.2867 13.5775 46.326C6.97874 51.3654 5.08587 55.4331 6.26015 57.2304C7.22411 58.701 9.8794 58.5032 13.3409 56.766C11.6145 60.1887 11.448 62.7944 12.964 63.7232C14.8131 64.8583 18.9231 62.9406 23.9795 56.3962C22.0691 62.5364 21.9289 67.3522 23.7078 69.0206C24.0846 69.3818 24.5403 69.5624 25.0398 69.5796C25.3641 69.5882 25.7146 69.5194 26.0651 69.3732C29.255 68.0574 33.9083 59.8189 35.1088 42.4475C36.546 59.8017 41.3132 67.9886 44.5118 69.2528C44.8098 69.3732 45.1077 69.4334 45.3881 69.442C45.9402 69.4592 46.4485 69.2614 46.8604 68.8658C48.613 67.1717 48.4115 62.3644 46.4135 56.25C51.5487 62.7256 55.6937 64.5831 57.5253 63.4308C59.0238 62.4848 58.8222 59.8791 57.052 56.4822C60.5398 58.1764 63.1951 58.3398 64.1416 56.852C65.2895 55.0375 63.3441 51.0042 56.6752 46.0422C62.9322 47.917 67.8396 48.0545 69.5397 46.3088C70.1444 45.6896 70.2758 44.8641 69.9078 44.0041L69.899 44.0127Z" fill="#438BED"/>
</svg>
