<svg width="202" height="196" viewBox="0 0 202 196" fill="none" xmlns="http://www.w3.org/2000/svg">
<path d="M101 98.1523C156.527 98.1523 201.544 141.686 201.706 195.429H190.17C190.008 147.832 150.139 109.312 101 109.312C51.8607 109.312 11.9923 147.832 11.8301 195.429H0.293945C0.456204 141.686 45.472 98.1523 101 98.1523ZM101 121.639C143.141 121.639 177.304 154.657 177.466 195.429H165.93C165.768 160.803 136.752 132.798 101 132.798C65.2482 132.798 36.2324 160.803 36.0703 195.429H24.5342C24.6963 154.657 58.8595 121.639 101 121.639ZM101 145.125C129.753 145.125 153.065 167.628 153.227 195.429H141.688C141.527 173.775 123.364 156.284 101 156.284C78.6355 156.284 60.4732 173.775 60.3115 195.429H48.7734C48.9354 167.628 72.2469 145.125 101 145.125ZM11.8301 0.291992C11.9925 47.8886 51.8609 86.4092 101 86.4092C150.139 86.4092 190.007 47.8886 190.17 0.291992H201.706C201.545 53.614 157.229 96.8865 102.302 97.5605L101 97.5684L99.6982 97.5605C44.7703 96.8865 0.455202 53.614 0.293945 0.291992H11.8301ZM36.0703 0.291992C36.2326 34.9172 65.2483 62.9229 101 62.9229C136.751 62.9229 165.767 34.9172 165.93 0.291992H177.466C177.303 41.0633 143.141 74.082 101 74.082C58.8597 74.082 24.6966 41.0633 24.5342 0.291992H36.0703ZM60.3115 0.291992C60.4735 21.9459 78.6357 39.4355 101 39.4355C123.364 39.4355 141.526 21.9459 141.688 0.291992H153.227C153.064 28.0921 129.753 50.5957 101 50.5957C72.2471 50.5957 48.9356 28.0921 48.7734 0.291992H60.3115Z" fill="#0FB492" fill-opacity="0.1" stroke="#1C1C21" stroke-width="0.583815"/>
</svg>
