<svg width="67" height="67" viewBox="0 0 67 67" fill="none" xmlns="http://www.w3.org/2000/svg">
<path d="M67 33.5274C67 32.1962 64.6637 31.1198 55.4105 31.1198C48.661 31.1198 40.1196 31.695 35.9829 32.5249C39.5083 30.2405 45.9646 24.7184 50.7294 20.0345C57.2695 13.6168 58.1487 11.2255 57.1857 10.2888C56.2227 9.35198 53.7943 10.2066 47.2542 16.6243C42.4811 21.3082 36.8538 27.6438 34.5258 31.0951C35.3716 27.0357 35.9578 18.654 35.9578 12.0308C35.9578 2.95066 34.8608 0.65802 33.5042 0.65802C32.1476 0.65802 31.0422 2.95066 31.0422 12.0308C31.0422 18.654 31.6284 27.0357 32.4742 31.0951C30.1462 27.6356 24.5189 21.3 19.7458 16.6243C13.2057 10.2066 10.7689 9.34376 9.81427 10.2888C8.85964 11.2338 9.73053 13.6168 16.2706 20.0345C21.0437 24.7184 27.5001 30.2405 31.0171 32.5249C26.8804 31.695 18.339 31.1198 11.5896 31.1198C2.33633 31.1198 0 32.1962 0 33.5274C0 34.8586 2.33633 35.9351 11.5896 35.9351C18.339 35.9351 26.8804 35.3599 31.0171 34.53C27.4917 36.8144 21.0437 42.3364 16.2706 47.0203C9.73053 53.4381 8.85127 55.8293 9.81427 56.7661C10.7773 57.7111 13.2057 56.8483 19.7458 50.4305C24.5189 45.7466 30.1462 39.4111 32.4742 35.9598C31.6284 40.0191 31.0422 48.4008 31.0422 55.024C31.0422 64.1042 32.1392 66.3969 33.5042 66.3969C34.8691 66.3969 35.9578 64.1042 35.9578 55.024C35.9578 48.4008 35.3716 40.0191 34.5258 35.9598C36.8538 39.4193 42.4811 45.7549 47.2542 50.4305C53.7943 56.8483 56.2311 57.7111 57.1857 56.7661C58.1487 55.8211 57.2695 53.4381 50.7294 47.0203C45.9563 42.3364 39.4999 36.8144 35.9829 34.53C40.1196 35.3599 48.661 35.9351 55.4105 35.9351C64.6637 35.9351 67 34.8586 67 33.5274Z" fill="#FFCC33"/>
</svg>
