<svg width="48" height="49" viewBox="0 0 48 49" fill="none" xmlns="http://www.w3.org/2000/svg">
<path d="M19.436 3.43359C19.8887 3.10855 20.4519 2.97659 21.0018 3.06673C21.5517 3.15687 22.0433 3.46172 22.3684 3.91425L25.1184 7.74248C25.4434 8.19511 25.5754 8.7583 25.4853 9.3082C25.3951 9.85811 25.0903 10.3497 24.6377 10.6749L11.1544 20.3604C10.7018 20.6855 10.1386 20.8174 9.58872 20.7273C9.03882 20.6371 8.54722 20.3323 8.22205 19.8798L5.4721 16.0515C5.14706 15.5989 5.0151 15.0357 5.10524 14.4858C5.19537 13.9359 5.50023 13.4443 5.95276 13.1191L19.436 3.43359Z" stroke="white" stroke-width="2" stroke-linecap="round" stroke-linejoin="round"/>
<path d="M11.8616 19.8517L12.3764 34.5746C12.3904 34.9752 12.5187 35.3634 12.7461 35.6935C12.9734 36.0235 13.2905 36.2817 13.6597 36.4375L38.752 47.6249C39.0837 47.765 39.4459 47.8176 39.8038 47.7774C40.1617 47.7373 40.5033 47.6059 40.7958 47.3958C41.0883 47.1857 41.3219 46.9039 41.4742 46.5776C41.6264 46.2512 41.6923 45.8912 41.6654 45.5321L39.0742 18.1813C39.0445 17.7816 38.901 17.3988 38.6608 17.0779C38.4206 16.7571 38.0937 16.5116 37.7185 16.3704L23.9305 11.1822M40.7835 47.3786L28.1503 29.792" stroke="white" stroke-width="2" stroke-linecap="round" stroke-linejoin="round"/>
<path d="M26.3783 22.2316C24.0876 21.8561 21.9263 23.4087 21.5508 25.6994C21.1753 27.9901 22.7279 30.1514 25.0186 30.5269C27.3093 30.9024 29.4706 29.3498 29.8461 27.0591C30.2216 24.7684 28.669 22.6071 26.3783 22.2316Z" stroke="white" stroke-width="2" stroke-linecap="round" stroke-linejoin="round"/>
</svg>
